<svg width="580" height="400" xmlns="http://www.w3.org/2000/svg">
 <!-- Created with Method Draw - http://github.com/duopixel/Method-Draw/ -->
 <g>
  <title>background</title>
  <rect fill="#fff" id="canvas_background" height="402" width="582" y="-1" x="-1"/>
  <g display="none" overflow="visible" y="0" x="0" height="100%" width="100%" id="canvasGrid">
   <rect fill="url(#gridpattern)" stroke-width="0" y="0" x="0" height="100%" width="100%"/>
  </g>
 </g>
 <g>
  <title>Layer 1</title>
  <rect transform="rotate(-45, 52.237, 46.9467)" id="svg_2" height="151.181234" width="304.845411" y="-28.643938" x="-100.185738" stroke-opacity="null" stroke-width="2" stroke="#000" fill="#000000"/>
  <path id="svg_3" d="m302.460052,209.707886c1.630371,-0.324234 13.463654,12.965851 13.687378,15.639496c0.325104,3.909653 7.819672,3.909653 9.775421,3.909653c1.955444,0 15.968414,8.472977 25.418701,17.593964c9.449921,9.125656 37.149536,0.653427 39.105286,0c1.9552,-0.648727 91.243103,-17.91861 115.360016,-5.864243c11.580963,5.790909 34.408966,-14.665848 37.392059,-57.179138c-1.222229,-28.349731 -26.717224,-29.416138 -32.016174,-20.773865c-3.911438,3.828918 -10.592346,2.689163 -8.962097,-4.318954c1.483734,-4.69017 11.406372,-19.139435 29.735046,-12.784485c15.5401,5.38591 24.527649,18.339951 27.862305,37.386841c2.201172,41.052597 -28.592957,71.353683 -28.592957,71.353683c0,0 2.443604,10.751892 5.864319,17.597992c3.422913,6.838226 4.399292,30.296906 3.911011,33.233246c-0.488098,2.93219 14.663452,19.058105 19.55127,19.548798c4.237183,1.955109 16.131287,38.120697 16.619263,45.940674c4.399353,2.197723 -0.487976,13.197083 -5.864197,14.661865c-5.376038,1.46759 -6.843384,-8.797516 -6.843384,-13.684723c0,-4.887756 -5.376038,-27.859314 -20.530396,-30.300781c-15.151611,-2.441345 -28.350403,-10.752014 -28.350403,-10.752014c0,0 -0.980103,4.886841 -2.932007,6.841736c0,0 4.887695,8.306641 4.887695,20.526581c-0.488281,5.378082 -8.311188,21.99469 -13.687195,23.459198c0,0 -8.79892,13.684448 -12.710968,13.684448c-3.907684,0 -10.751923,4.886902 -21.506744,-0.973907c0,0 1.955902,-12.220184 11.731476,-8.800537c0,0 22.974304,-17.59079 11.731476,-25.414368c0,0 -6.843781,-9.774536 -10.752075,-13.683838c-3.911438,-3.910187 -7.822632,-10.265381 -8.799194,-17.59436c0,0 -32.749878,-1.954865 -41.061127,-3.909973c-8.307861,-1.954865 -23.462555,2.932373 -23.462555,5.865021c0,2.932281 2.444031,30.791351 6.84375,36.165039c0,0 1.467621,6.842682 0,8.801117c-1.467743,1.950958 5.375793,18.081238 -7.820129,16.612976c-12.465179,2.198364 -18.574585,-7.572418 -3.911407,-10.751617c0.733643,-10.509003 -18.574951,-54.984802 -31.285309,-48.872925c-16.61911,2.4422 -10.997467,-11.972809 -27.371033,10.751678c-17.110168,20.040131 -46.436951,34.210846 -47.90509,43.012421c0,0 -8.798584,-1.959198 -10.754639,4.887115c0,0 -22.974487,2.932251 -21.506744,-0.981232c1.467438,-3.905884 2.689423,-11.973206 11.73111,-8.797058c0,0 20.530273,-8.063446 40.081818,-49.849945c0,0 -2.444244,-10.752075 0.979431,-19.549194c3.420319,-8.79715 -1.955627,-44.962677 -26.397339,-43.007813c0,0 -9.122284,3.257019 -14.66391,-11.733459c0,0 -2.280975,-2.932159 0,-5.864792c2.281006,-2.928085 7.82312,-7.490738 8.799286,-10.75145c0.976349,-3.256744 3.257751,-8.144455 15.643036,-12.707047c5.863892,-6.108032 -0.654572,-18.2435 0.975922,-18.571823z" stroke-opacity="null" stroke-width="2" stroke="#000" fill="#000000"/>
 </g>
</svg>