<?xml version="1.0" encoding="UTF-8"?>
<!DOCTYPE svg PUBLIC "-//W3C//DTD SVG 1.1//EN" "http://www.w3.org/Graphics/SVG/1.1/DTD/svg11.dtd">
<!-- Creator: CorelDRAW -->
<svg xmlns="http://www.w3.org/2000/svg" xml:space="preserve" width="180mm" height="270mm" style="shape-rendering:geometricPrecision; text-rendering:geometricPrecision; image-rendering:optimizeQuality; fill-rule:evenodd; clip-rule:evenodd"
viewBox="0 0 180 270"
 xmlns:xlink="http://www.w3.org/1999/xlink">
 <defs>
  <style type="text/css">
   <![CDATA[
    .fil0 {fill:black;fill-rule:nonzero}
   ]]>
  </style>
 </defs>
 <g id="Layer_x0020_1">
  <metadata id="CorelCorpID_0Corel-Layer"/>
  <path class="fil0" d="M78.856 262.143c0.0838,-0.6821 0.5891,-1.4165 1.7257,-2.0581 0.9099,-0.5136 2.0675,-1.6801 3.3043,-3.1695 1.5853,-1.9089 3.2758,-4.3364 4.7533,-6.6271l0.0693 -0.1075c0.6728,-1.0438 1.1176,-1.7334 1.782,-1.9258 1.0467,-0.3033 1.648,0.3969 2.2436,2.4529 0.4303,1.485 1.2322,3.0104 2.3892,4.512 1.1428,1.4834 2.6327,2.941 4.4543,4.3129 0.7715,0.5811 1.1852,1.1466 1.3206,1.6525 0.1322,0.4934 0.0412,0.9314 -0.2319,1.3021 -0.2231,0.3028 -0.5512,0.521 -0.9565,0.6491 -0.7035,0.2225 -1.7757,0.1874 -2.9085,-0.169 -3.2389,-1.0194 -5.8348,-1.1883 -8.0394,-0.8891 -2.2035,0.299 -4.0488,1.0702 -5.7615,1.9276 -1.0325,0.5168 -2.2463,0.4446 -3.0429,0.0285 -0.337,-0.176 -0.6182,-0.4161 -0.813,-0.7072 -0.2326,-0.3478 -0.342,-0.7479 -0.2886,-1.1843zm2.6863 -0.3519c-0.3915,0.221 -0.6064,0.3851 -0.6914,0.4994l0.0135 0.0072c0.3126,0.1633 0.812,0.1803 1.2599,-0.0439 1.8753,-0.9388 3.9066,-1.7847 6.3765,-2.1198 2.469,-0.3351 5.3448,-0.1558 8.8846,0.9583 0.4938,0.1554 0.9378,0.2282 1.2844,0.2272 -0.0772,-0.0655 -0.1687,-0.1383 -0.2757,-0.2189 -1.9578,-1.4744 -3.5715,-3.0573 -4.8231,-4.6819 -1.3079,-1.6975 -2.2209,-3.4441 -2.7196,-5.1652 -0.2039,-0.7037 0.5317,-1.2162 0.1848,-1.1157 -0.0443,0.0128 -0.2419,0.4313 -0.6752,1.1036l-0.0693 0.1075c-1.5035,2.3311 -3.2401,4.821 -4.8995,6.8191 -1.3748,1.6556 -2.7114,2.9804 -3.8499,3.6231zm1.261 -215.948c0.469,-0.2695 1.0677,-0.1078 1.3372,0.3612 0.2695,0.469 0.1078,1.0677 -0.3612,1.3372 -5.7728,3.3261 -15.2644,9.1243 -22.9612,16.0506 -7.5332,6.779 -13.3242,14.61 -11.9954,22.108 1.7167,9.686 8.7666,10.9428 17.8331,9.3359 4.692,-0.8316 9.9433,-2.4202 15.2918,-4.038 12.4915,-3.7786 25.5044,-7.7148 34.1306,-2.8756 1.818,1.0199 3.4384,2.2328 4.9743,3.3825 2.4886,1.8627 4.7411,3.5487 7.1478,3.7936 3.8591,0.3927 7.1214,-1.0463 9.7299,-3.2681 3.6926,-3.1451 6.0961,-7.831 7.0729,-11.2203 1.3859,-4.8085 0.4661,-10.0534 -1.5874,-15.0971 -2.8907,-7.1 -8.0194,-13.7822 -12.1975,-18.3598 -0.365,-0.401 -0.3357,-1.0221 0.0653,-1.3871 0.401,-0.365 1.0221,-0.3357 1.3871,0.0653 4.2942,4.7049 9.5718,11.5884 12.5665,18.9438 2.2018,5.4082 3.174,11.0813 1.6488,16.3729 -1.0575,3.6694 -3.668,8.7496 -7.6877,12.1733 -2.982,2.54 -6.7292,4.1831 -11.1901,3.7291 -2.951,-0.3003 -5.4121,-2.1424 -8.1314,-4.1778 -1.4703,-1.1006 -3.0216,-2.2617 -4.7591,-3.2365 -7.8947,-4.4289 -20.5007,-0.6157 -32.6012,3.0446 -5.4007,1.6336 -10.7031,3.2377 -15.5224,4.0918 -10.1826,1.8047 -18.1163,0.3031 -20.1079,-10.9343 -1.4743,-8.3187 4.639,-16.7264 12.6178,-23.9064 7.815,-7.0327 17.4438,-12.9149 23.2994,-16.2888zm59.6832 33.3633c0.2058,-0.5008 0.7787,-0.7399 1.2795,-0.5341 0.5008,0.2058 0.7399,0.7787 0.5341,1.2795 -2.599,6.3456 -5.7073,10.5288 -8.9547,12.7076 -1.4872,0.9977 -3.0061,1.5835 -4.5235,1.7719 -1.5327,0.1903 -3.0577,-0.0262 -4.5417,-0.634 -2.3837,-0.9762 -4.6359,-2.97 -6.6104,-5.9129 -0.3013,-0.4498 -0.1808,-1.0589 0.269,-1.3602 0.4498,-0.3013 1.0589,-0.1808 1.3602,0.269 1.7525,2.612 3.7028,4.3617 5.7266,5.1905 1.1612,0.4756 2.356,0.6448 3.5581,0.4956 1.2176,-0.1511 2.4499,-0.6302 3.6705,-1.4491 2.9354,-1.9694 5.7881,-5.8562 8.2323,-11.8238zm-92.3105 1.4246c0.0551,-0.539 0.5369,-0.9312 1.0759,-0.8761 0.539,0.0551 0.9312,0.5369 0.8761,1.0759 -0.2939,2.7724 0.0604,5.0998 0.9576,6.91 0.6274,1.2658 1.528,2.2837 2.6627,3.0261 1.152,0.7537 2.5504,1.2295 4.1558,1.3997 3.1786,0.337 7.1479,-0.5058 11.6307,-2.7277 0.486,-0.2398 1.0744,-0.0402 1.3142,0.4458 0.2398,0.486 0.0402,1.0744 -0.4458,1.3142 -4.8282,2.3931 -9.1671,3.2942 -12.6989,2.9197 -1.9289,-0.2045 -3.6224,-0.7848 -5.032,-1.7071 -1.4269,-0.9336 -2.5587,-2.2125 -3.3467,-3.8023 -1.0593,-2.1371 -1.4837,-4.8265 -1.1496,-7.9782zm111.031 74.2826c-1.2512,-7.0957 -5.9363,-15.5699 -16.8731,-23.1258 -1.272,4.4177 -2.5712,8.5066 -3.6868,12.0166 -1.6094,5.0635 -2.8155,8.859 -3.067,10.3584 5.8046,-4.1407 15.0458,-1.6129 20.5969,-0.0942 1.3583,0.3716 2.4449,0.6807 3.03,0.845zm-23.6132 -0.0585l0.01 0.0189c0.0352,0.045 0.0241,0.0287 -0.01,-0.0189zm-38.6907 -39.3176c-5.7043,0.5952 -11.156,1.2763 -16.3516,2.0406 4.7603,1.3683 9.418,3.0235 13.8938,4.9088 3.7419,-0.9482 7.4916,-1.935 11.2107,-2.9741 1.3504,-0.3773 2.2024,-0.9946 2.6288,-1.6694 -3.5597,-0.8446 -7.3497,-1.6166 -11.3817,-2.3059zm8.4112 -0.7996c-0.474,0.0408 -0.9463,0.0822 -1.4171,0.1241 1.5148,0.314 2.9915,0.6405 4.432,0.9788 -0.0489,-0.0762 -0.104,-0.1498 -0.165,-0.2202 -0.5296,-0.6105 -1.5053,-0.9984 -2.8499,-0.8827zm-28.6895 1.453c4.1139,-0.6517 8.3938,-1.249 12.8374,-1.7909 -2.8258,-0.3835 -5.7572,-0.7292 -8.8005,-1.0333 -1.9725,-0.1971 -3.358,0.2678 -4.0679,0.9691 -0.2202,0.2176 -0.3632,0.4543 -0.4235,0.6906 -0.0528,0.2069 -0.0416,0.4165 0.0379,0.6112 0.0783,0.1916 0.2161,0.3788 0.4166,0.5533zm-54.6848 18.7599c-6.6403,3.9133 -11.5009,8.271 -14.546,13.0224 4.9846,-2.2665 12.6001,-1.9795 15.6447,-1.8649l0.1411 0.0053c-0.0875,-0.7714 -0.1961,-1.6767 -0.3134,-2.6556 -0.2903,-2.423 -0.6365,-5.312 -0.9264,-8.5072zm118.741 -122.04c-0.3947,0.3714 -1.0158,0.3525 -1.3872,-0.0422 -0.0768,-0.0817 -0.137,-0.1731 -0.1805,-0.2699 0.1798,2.2857 -0.3253,5.6153 -1.7894,10.259 -0.1612,0.5178 -0.7118,0.8068 -1.2296,0.6456 -0.5178,-0.1612 -0.8068,-0.7118 -0.6456,-1.2296 1.7308,-5.4894 2.0634,-8.8757 1.501,-10.7298 -0.2593,-0.8547 -0.7262,-1.3066 -1.3277,-1.4446 -0.7344,-0.1686 -1.7087,0.0345 -2.8107,0.5034 -3.4116,1.4519 -7.6458,5.285 -10.2606,8.9132l-0.0005 -0.0004c-0.0591,0.0822 -0.1322,0.1566 -0.2185,0.2195 -0.4371,0.3183 -1.0497,0.2219 -1.368,-0.2152 -1.6311,-2.2412 -3.3291,-4.2967 -5.1003,-6.1466 -1.7582,-1.8364 -3.5842,-3.4631 -5.484,-4.86 -0.4371,-0.3204 -0.5318,-0.9347 -0.2114,-1.3718 0.3204,-0.4371 0.9347,-0.5318 1.3718,-0.2114 1.9915,1.4644 3.9018,3.1656 5.7376,5.083 1.543,1.6116 3.0372,3.3819 4.486,5.2977 2.8136,-3.5429 6.8979,-7.075 10.2793,-8.514 1.471,-0.6259 2.8525,-0.8783 4.0173,-0.611 1.2977,0.2978 2.2747,1.1736 2.7649,2.7894 0.094,0.3098 0.1686,0.6505 0.2224,1.0232 0.0392,-0.1913 0.1357,-0.3729 0.2887,-0.5169 1.5661,-1.4706 3.2339,-2.2063 5.0261,-2.0369 1.7357,0.164 3.5101,1.1899 5.3294,3.2386 0.3586,0.4053 0.3208,1.0247 -0.0845,1.3833 -0.4053,0.3586 -1.0247,0.3208 -1.3833,-0.0845 -1.4655,-1.6503 -2.808,-2.4685 -4.046,-2.5854 -1.1819,-0.1117 -2.3466,0.4343 -3.4967,1.5143zm4.6283 14.0205c-0.2928,0.4562 -0.9003,0.5887 -1.3565,0.2959 -0.4562,-0.2928 -0.5887,-0.9003 -0.2959,-1.3565 8.4006,-13.1094 14.1457,-16.1304 16.9994,-14.3017 1.7152,1.0991 2.3527,3.8149 1.9076,7.1529 -0.4129,3.0966 -1.7395,6.8119 -3.9714,10.2284 -6.0043,9.1916 -18.5036,16.3784 -37.3042,4.097 -0.4541,-0.2971 -0.5814,-0.9062 -0.2843,-1.3603 0.2971,-0.4541 0.9062,-0.5814 1.3603,-0.2843 17.5251,11.4482 29.0741,4.9057 34.5836,-3.5284 2.0691,-3.1674 3.2948,-6.5806 3.6716,-9.406 0.3446,-2.584 0.0092,-4.5849 -1.0238,-5.2469 -2.0035,-1.2839 -6.6628,1.813 -14.2864,13.7099zm-88.7724 99.8569c0.6932,1.5885 1.314,3.0842 1.8691,4.4942 5.8018,-1.511 11.9987,-2.985 18.4129,-4.5106 4.7152,-1.1215 9.5483,-2.2711 14.4137,-3.4793 -4.3962,-1.7408 -8.9531,-3.2529 -13.596,-4.4834 -0.5492,-0.1455 -1.0304,-0.3358 -1.4452,-0.5607 -7.7456,1.2439 -14.8894,2.6812 -21.4241,4.3012 0.5458,1.3753 1.1362,2.7871 1.7696,4.2386zm-0.0415 4.9971c-0.5244,-1.3238 -1.1077,-2.7256 -1.7569,-4.2133 -0.6785,-1.5548 -1.3089,-3.0659 -1.8891,-4.5372 -6.2918,1.6243 -11.9977,3.4232 -17.1085,5.3873 -4.4245,1.7004 -8.399,3.5223 -11.9208,5.4587 0.3019,3.5338 0.6837,6.7211 0.9983,9.3465 0.064,0.5346 0.1252,1.045 0.1832,1.5399 6.4632,-5.4138 17.7827,-9.3328 31.4938,-12.9819zm16.3826 65.0648c6.0351,-4.059 12.6045,-8.2078 19.7201,-12.4522 -8.6873,-4.3758 -18.5489,-9.0308 -29.7269,-14.0043 1.7155,9.9647 5.7514,18.5751 10.0068,26.4565zm-29.8842 23.3186c7.5228,-7.1033 16.9135,-14.4945 28.2485,-22.2118 -4.557,-8.4181 -8.8917,-17.6608 -10.5208,-28.52 -10.6439,-4.703 -22.471,-9.6925 -35.6281,-15.0077 -4.8154,-1.9452 -9.0152,-2.3201 -12.4435,-1.527 -2.9357,0.6791 -5.3116,2.2232 -7.0211,4.3704 -1.7273,2.1696 -2.7853,4.9589 -3.0664,8.1022 -0.3946,4.4125 0.7337,9.5157 3.6742,14.6025 7.2011,12.4571 13.8164,22.4604 20.0853,31.94 3.3739,5.1019 6.6479,10.0527 9.8623,15.1579 2.0721,-2.2735 4.3405,-4.5751 6.8096,-6.9065zm29.1929 -20.4828c-11.1729,7.6167 -20.4304,14.9083 -27.8479,21.9122 -2.5813,2.4374 -4.9371,4.8382 -7.0732,7.2043 3.7231,5.9814 7.3718,12.218 11.0098,19.1905 4.3245,8.288 10.3655,12.3758 16.319,13.0259 3.0173,0.3294 6.02,-0.2217 8.7675,-1.5537 2.7655,-1.3407 5.2764,-3.4737 7.2909,-6.2982 4.9688,-6.9671 6.9115,-18.109 2.2884,-31.9806 -1.8765,-5.6303 -5.0883,-11.3633 -8.5074,-17.4661 -0.743,-1.3263 -1.4957,-2.6701 -2.2471,-4.0343zm42.462 -3.3646c-2.6597,5.4453 -5.8165,9.9641 -8.8855,14.3564 -2.1796,3.1193 -4.3141,6.1742 -6.1837,9.4566 -2.2406,3.9337 -4.0272,7.8099 -5.2737,11.5262 -1.9576,5.8362 -2.5837,11.2685 -1.5406,15.8904 1.0236,4.5355 3.6797,8.3137 8.298,10.9442 1.3471,0.7672 2.8601,1.4386 4.5464,2.0042 9.1675,3.0751 15.6585,0.8121 20.2244,-4.4733 4.6912,-5.4306 7.4447,-14.0356 9.0089,-23.3934 1.1215,-6.7104 2.3792,-13.3634 3.9133,-19.927 -6.1704,-5.0424 -13.9921,-10.4468 -24.1075,-16.3843zm3.995 -20.4511c0.2318,-1.7903 0.4225,-3.5983 0.5921,-5.4042 -3.4177,2.456 -6.8477,4.871 -10.4096,6.8535 -4.2153,2.3463 -8.269,4.6633 -12.1654,6.9524 6.3087,3.2351 11.9877,6.3222 17.1103,9.2803 2.2021,-4.9326 3.9618,-10.6454 4.8726,-17.682zm2.704 -6.924c-0.2063,2.3351 -0.4421,4.7172 -0.7596,7.17 -0.9537,7.3681 -2.8002,13.3127 -5.1053,18.4283 9.8805,5.7906 17.6171,11.0862 23.7801,16.0387 0.4759,-1.9519 0.9776,-3.8957 1.5091,-5.8302 2.5074,-9.1267 5.6727,-18.0299 9.8851,-26.6083 2.2915,-4.6667 4.2548,-9.6189 4.4591,-13.5097 0.1844,-3.5117 -1.1789,-6.1277 -5.3489,-6.6814 -10.6883,-1.4194 -19.5892,4.6465 -28.4196,10.9926zm-1.6625 -3.6717c0.6618,-7.9893 1.2895,-15.5614 3.8716,-22.3718 -3.2721,-3.033 -7.0537,-5.9661 -11.2279,-8.7176 -5.4367,-3.5837 -11.5342,-6.8542 -18.0363,-9.6333 -5.7718,1.4582 -11.4779,2.8154 -17.0203,4.1336 -6.3269,1.5049 -12.4401,2.9589 -18.1582,4.4433 4.6993,12.5913 3.8609,17.8511 3.2673,21.5679 -0.1244,0.7794 -0.2375,1.4868 -0.2766,2.168 -0.226,3.9326 -0.0567,7.666 0.416,11.2279 12.1606,5.3925 22.7809,10.4149 32.0691,15.1233 4.2385,-2.5032 8.665,-5.0395 13.2833,-7.6101 3.8414,-2.1381 7.566,-4.8204 11.2909,-7.5029l0.3024 -0.2177c0.0748,-0.8736 0.147,-1.7446 0.2187,-2.6106zm7.0887 -28.7779c2.1787,-3.3617 4.0068,-6.8623 5.5003,-10.4767 -6.0538,-2.8949 -13.3279,-5.5168 -22.0267,-7.6976 -0.5649,1.2884 -1.8798,2.4695 -4.0689,3.081 -2.9387,0.821 -5.8778,1.6055 -8.8044,2.3614 5.7453,2.5959 11.1486,5.5652 16.0307,8.7834 4.0352,2.6598 7.7167,5.4924 10.9453,8.4276 0.6856,-1.5367 1.4854,-3.0312 2.4237,-4.4791zm7.2646 -9.6081c-1.5297,3.6803 -3.3978,7.2474 -5.62,10.6763 -1.0033,1.5482 -1.8403,3.163 -2.5444,4.8365 3.3384,3.2152 6.1254,6.5378 8.233,9.8789 0.5053,-2.2482 1.4891,-5.3439 2.6726,-9.0677 1.1603,-3.6508 2.5223,-7.9371 3.8434,-12.5645 -1.3962,-0.8994 -2.8838,-1.784 -4.471,-2.6492 -0.6859,-0.3739 -1.3909,-0.7439 -2.1136,-1.1103zm3.3747 -30.9021c-0.0169,-0.5411 0.4081,-0.9937 0.9492,-1.0106 0.5411,-0.0169 0.9937,0.4081 1.0106,0.9492 0.2624,7.5949 -0.4905,15.0248 -2.3588,22.1321 -0.6235,2.372 -1.3714,4.7083 -2.2471,7.0029 0.7957,0.4012 1.5699,0.8071 2.3226,1.2174 1.4391,0.7845 2.7993,1.5854 4.0874,2.3994 3.988,-14.4183 7.2746,-31.6403 2.9284,-43.2915 -0.1888,-0.5072 0.0692,-1.0716 0.5764,-1.2604 0.5072,-0.1888 1.0716,0.0692 1.2604,0.5764 4.5963,12.3217 1.0913,30.2876 -3.0445,45.0985 11.1826,7.5568 16.3113,16.1169 17.9825,23.4902 2.4482,-4.9422 3.8243,-16.5926 2.8687,-29.2252 -1.0044,-13.2793 -4.6029,-27.5501 -12.2705,-36.0962 -1.6647,-1.8555 -3.5233,-3.4399 -5.5906,-4.6818 -0.4647,-0.278 -0.6161,-0.8802 -0.3381,-1.3449 0.278,-0.4647 0.8802,-0.6161 1.3449,-0.3381 2.239,1.3451 4.2481,3.0567 6.044,5.0584 7.9986,8.9151 11.7386,23.6198 12.7701,37.2566 1.0322,13.6453 -0.6649,26.3156 -3.5244,31.0752 -0.3593,0.598 -0.7452,1.0912 -1.1556,1.4688 -0.0667,0.0671 -0.1432,0.1248 -0.2277,0.1706 -0.8709,0.4931 -2.6712,0.0009 -5.1391,-0.6743 -5.2973,-1.4492 -14.1785,-3.879 -19.1869,-0.0194 -1.0829,0.8346 -1.8819,0.8364 -2.4535,0.0946 -0.0347,-0.045 -0.0655,-0.0953 -0.0935,-0.15 -0.0203,-0.0302 -0.0392,-0.0617 -0.0564,-0.0947 -2.0009,-3.8315 -4.9922,-7.6812 -8.7632,-11.4031 -2.2474,6.3774 -2.8401,13.5239 -3.4635,21.0494l-0.0782 0.9429c8.7053,-6.2031 17.5819,-11.8134 28.4541,-10.3696 5.4969,0.7299 7.2956,4.145 7.0551,8.7258 -0.2206,4.2018 -2.2697,9.4049 -4.6589,14.2705 -4.1542,8.4598 -7.278,17.2484 -9.7545,26.2625 -0.6089,2.2163 -1.1789,4.4475 -1.7156,6.6919 16.0992,13.401 20.7708,24.3295 25.7166,35.9024 1.2493,2.9233 2.5165,5.8883 3.9908,8.937 0.2355,0.4881 0.0308,1.0748 -0.4573,1.3103 -0.4881,0.2355 -1.0748,0.0308 -1.3103,-0.4573 -1.4943,-3.0901 -2.7708,-6.0768 -4.0292,-9.0214 -4.761,-11.1404 -9.2693,-21.6751 -24.414,-34.521 -1.4201,6.1979 -2.6022,12.4916 -3.6641,18.8455 -1.6167,9.6724 -4.5016,18.6115 -9.4623,24.354 -5.0862,5.8877 -12.2616,8.427 -22.33,5.0497 -1.8116,-0.6076 -3.4398,-1.3305 -4.8924,-2.1578 -5.1392,-2.9272 -8.0982,-7.1467 -9.2432,-12.22 -1.1256,-4.987 -0.4745,-10.7754 1.5944,-16.9432 1.2884,-3.8414 3.127,-7.8336 5.4273,-11.8722 1.9019,-3.3391 4.0699,-6.4419 6.2837,-9.6102 3.0392,-4.3497 6.1665,-8.8263 8.7861,-14.2255 -5.4251,-3.1372 -11.4898,-6.4237 -18.2766,-9.8815 -7.5569,4.4833 -14.5003,8.858 -20.8459,13.1309 0.7778,1.4146 1.5577,2.8068 2.327,4.18 3.4582,6.1727 6.7068,11.9713 8.6534,17.8119 4.8458,14.5398 2.7436,26.3109 -2.5496,33.7328 -2.2104,3.0991 -4.9785,5.4458 -8.0365,6.9284 -3.0759,1.4912 -6.4417,2.1078 -9.8279,1.7381 -6.5687,-0.7172 -13.1862,-5.1358 -17.8484,-14.0711 -3.5045,-6.7165 -7.0306,-12.7616 -10.6308,-18.5645 -8.7933,10.1321 -13.4953,19.6241 -14.3653,28.6043 -0.0509,0.539 -0.5292,0.9347 -1.0682,0.8838 -0.539,-0.0509 -0.9347,-0.5292 -0.8838,-1.0682 0.9228,-9.5247 5.9074,-19.5321 15.2324,-30.1581 -3.2999,-5.2557 -6.6659,-10.3457 -10.138,-15.5961 -6.2828,-9.5006 -12.9128,-19.5261 -20.1467,-32.04 -3.1511,-5.4511 -4.3565,-10.9605 -3.9278,-15.7551 0.3162,-3.5365 1.5175,-6.6884 3.4814,-9.1552 1.9817,-2.4892 4.7298,-4.2778 8.1201,-5.062 3.8003,-0.8792 8.4,-0.486 13.6115,1.6192 12.7305,5.1428 24.2117,9.9819 34.5995,14.5582 -0.372,-3.3132 -0.4867,-6.7758 -0.2779,-10.409 0.044,-0.7665 0.1658,-1.5284 0.2998,-2.3678 0.5633,-3.5265 1.3593,-8.5205 -3.2376,-20.7603 -14.3556,3.8066 -26.0067,7.8707 -31.9504,13.5396 -0.0019,0.565 -0.3269,0.8555 -0.9538,0.9193 -0.0823,0.0083 -0.1979,0.0111 -0.3454,0.01 -0.0349,0.0014 -0.07,0.0009 -0.1048,-0.0013 -0.2309,-0.004 -0.5263,-0.015 -0.8833,-0.0285 -3.8336,-0.1442 -15.579,-0.5863 -17.8623,4.3819 -0.0712,0.1841 -0.1407,0.3686 -0.2069,0.5537 -0.009,0.0252 -0.0189,0.0498 -0.0297,0.0738 -0.0972,0.2273 -0.2596,0.3939 -0.4908,0.5029l0.0007 0.0015c-0.0124,0.0059 -0.025,0.0107 -0.0378,0.015 -0.4829,0.2041 -1.0448,-0.0087 -1.2686,-0.4876 -0.1221,-0.2612 -0.1191,-0.5489 -0.0154,-0.7953l0.0226 -0.0612 0.0224 -0.0662c-0.2651,-0.726 -0.4802,-1.7275 -0.5681,-3.0038 -0.1598,-2.321 -0.2682,-5.6528 -0.1402,-9.6535 0.6127,-19.1465 6.6782,-53.3323 38.6099,-63.9715 0.5135,-0.1697 1.0676,0.109 1.2373,0.6225 0.1697,0.5135 -0.109,1.0676 -0.6225,1.2373 -30.8074,10.2646 -36.6683,43.5324 -37.2649,62.1731 -0.1247,3.899 -0.0175,7.1709 0.1401,9.46 3.1693,-6.0458 8.9445,-11.4933 17.2627,-16.2547 -1.3545,-17.3164 -0.5158,-42.0042 18.3585,-51.5271 0.4838,-0.244 1.074,-0.0496 1.318,0.4342 0.244,0.4838 0.0496,1.074 -0.4342,1.318 -17.4883,8.8236 -18.5602,31.9589 -17.3483,48.7263 3.4081,-1.8262 7.2052,-3.5461 11.3895,-5.1542 5.1194,-1.9674 10.8225,-3.7704 17.1005,-5.3995 -1.3171,-3.5248 -2.3276,-6.82 -2.9994,-9.9418 -1.0728,-4.9851 -1.2837,-9.5353 -0.5053,-13.8752 0.0954,-0.5326 0.6048,-0.887 1.1374,-0.7916 0.5326,0.0954 0.887,0.6048 0.7916,1.1374 -0.7299,4.0699 -0.524,8.3748 0.4975,13.122 0.6638,3.0848 1.6719,6.3539 2.9911,9.8626 6.2561,-1.5597 13.0623,-2.9518 20.4128,-4.1672 -0.026,-0.0544 -0.0505,-0.1093 -0.0731,-0.1645 -0.2456,-0.6011 -0.2846,-1.2286 -0.1303,-1.8332 0.1469,-0.5753 0.469,-1.1259 0.9539,-1.605 1.0764,-1.0633 3.0193,-1.7839 5.6357,-1.5225 5.7437,0.574 11.0996,1.2946 16.0928,2.1413 2.6805,-0.2784 5.4159,-0.5378 8.2062,-0.7779 2.0272,-0.1744 3.5809,0.5058 4.4945,1.5591 0.4608,0.5314 0.7581,1.1545 0.8739,1.8143 0.0132,0.0753 0.024,0.1511 0.0325,0.2273 8.8509,2.2092 16.2636,4.8712 22.4433,7.8142 0.8229,-2.1747 1.5282,-4.3882 2.1189,-6.6354 1.8198,-6.9229 2.5531,-14.1647 2.2972,-21.5711zm-8.6008 -77.7807c-2.3723,1.9885 -4.9745,4.9449 -7.2207,8.7236 0.9687,0.8774 2.1233,1.7379 3.5661,2.6099 3.2199,1.9459 7.2144,3.3923 11.3107,3.9198 3.6347,0.4681 7.3423,0.2146 10.6441,-1.0548 3.0457,-1.171 5.5153,-3.5507 7.2345,-6.1201 2.1206,-3.1697 3.0887,-6.532 2.5613,-8.1835 -0.0765,-0.2395 -0.1692,-0.3194 -0.2731,-0.2863 -1.3758,0.4394 -3.9154,3.543 -6.4813,6.6787 -2.0431,2.4968 -4.1025,5.0135 -5.8252,6.4279 -1.0287,0.8446 -1.9079,1.1039 -2.6185,0.9891 -0.541,-0.0874 -0.9617,-0.3685 -1.2701,-0.7783 -0.2574,-0.342 -0.4226,-0.7633 -0.5022,-1.2175 -0.1918,-1.0959 0.1148,-2.5286 0.8274,-3.4055 1.2785,-1.5735 2.5102,-3.8234 3.2985,-5.8747 0.4224,-1.0988 0.7124,-2.1297 0.8054,-2.9494 0.0605,-0.5332 0.0612,-0.9002 -0.0186,-1.0088 -0.5374,-0.0976 -1.9385,2.1364 -3.4511,4.5486 -2.1601,3.4446 -4.5036,7.1814 -7.1553,6.6508 -1.8905,-0.3784 -1.8759,-2.9024 -1.309,-5.7357 0.2621,-1.3099 0.6432,-2.7392 0.9718,-3.972 0.3742,-1.4039 0.6792,-2.4936 0.6749,-2.5043 -0.0267,-0.0657 -0.0592,-0.1139 -0.0963,-0.1449l-0.0245 -0.0152c-0.3063,-0.1961 -0.9486,-0.1034 -1.8271,0.2492 -1.0874,0.4366 -2.4037,1.2648 -3.8217,2.4534zm-14.8833 53.9142c0.1209,0.5284 -0.2094,1.0549 -0.7378,1.1758 -0.5284,0.1209 -1.0549,-0.2094 -1.1758,-0.7378 -0.8929,-3.8705 -1.0427,-10.9069 -0.1505,-18.8326 0.7392,-6.5675 2.1922,-13.7719 4.5275,-20.3215 0.7847,-2.2008 1.7173,-4.2455 2.7408,-6.1208 -1.7382,-1.8458 -2.8814,-3.7906 -4.2152,-6.06 -0.8218,-1.3984 -1.72,-2.9266 -2.9096,-4.6624 -1.2419,-1.8121 -3.558,-3.2811 -6.2421,-4.1635 -2.0383,-0.6701 -4.2724,-0.9945 -6.403,-0.8704 -2.0826,0.1213 -4.0586,0.6728 -5.634,1.7525 -1.3459,0.9223 -2.4069,2.2443 -2.9942,4.0309 -0.1494,0.4547 0.2369,1.26 0.6426,2.1057 0.4751,0.99 0.97,2.0213 0.97,3.1298 0,2.9015 -2.1595,5.9257 -3.8063,8.2318 -0.55,0.7701 -1.039,1.4548 -1.323,1.9576 -0.5207,0.9217 -0.5152,1.3829 -0.2679,1.6029 0.3932,0.3497 1.2542,0.5109 2.0459,0.6319l0.0306 0.0052 0.0996 0.0149c0.2667,0.0395 0.4663,0.069 0.6837,0.1532 0.9944,0.3849 1.0674,0.8396 0.5639,2.1395 -0.1281,0.3302 -0.3043,0.6879 -0.5182,1.0252 -0.1141,0.1799 -0.2423,0.3598 -0.3839,0.5338 0.6504,0.4831 1.6414,0.9609 2.4376,1.3448 0.0532,0.0257 0.0975,0.0469 0.4474,0.2189l0.0015 -0.0031 0.1931 0.0941c0.0167,0.0081 0.0329,0.0166 0.0489,0.0256 0.6597,0.3203 0.9678,0.4887 0.8995,1.1967 -0.0671,0.7058 -0.3987,0.8024 -1.0223,0.984 -0.0774,0.0226 -0.1705,0.0497 -0.3056,0.0929 -0.5499,0.1764 -1.3017,0.449 -1.9695,0.7352 -0.4807,0.2059 -0.8967,0.4082 -1.1117,0.5635 -2.447,1.7675 -2.3378,8.9015 -2.2442,15.008 0.08,5.2195 0.1494,9.7616 -1.7156,10.7146 -0.4817,0.2461 -1.0719,0.0551 -1.318,-0.4266 -0.2461,-0.4817 -0.0551,-1.0719 0.4266,-1.318 0.7782,-0.3977 0.7173,-4.3756 0.6472,-8.947 -0.1007,-6.5743 -0.2184,-14.2545 3.059,-16.6218 0.348,-0.2513 0.8936,-0.5241 1.4881,-0.7787 0.2044,-0.0876 0.4176,-0.1745 0.6317,-0.2583 -0.7542,-0.3852 -1.5329,-0.8297 -2.1057,-1.327 -0.0215,-0.0164 -0.0426,-0.0338 -0.0631,-0.0522l-0.0226 -0.0203 0.0017 -0.0019c-0.424,-0.3802 -0.6356,-0.5715 -0.6863,-1.0443 -0.0598,-0.5594 0.1437,-0.7676 0.5492,-1.1819l0.0241 -0.0246c0.1561,-0.1595 0.3027,-0.3538 0.4329,-0.5592 0.0835,-0.1317 0.1568,-0.2621 0.219,-0.3868 -0.9954,-0.165 -2.0518,-0.4229 -2.7709,-1.0625 -0.9351,-0.8318 -1.2388,-2.0719 -0.1319,-4.0313 0.3547,-0.6279 0.8611,-1.3368 1.4306,-2.1344 1.4873,-2.0827 3.4375,-4.8138 3.4375,-7.0944 0,-0.6794 -0.393,-1.4983 -0.7702,-2.2844 -0.5811,-1.2115 -1.1346,-2.3649 -0.7424,-3.5583 0.7336,-2.2318 2.0645,-3.8868 3.755,-5.0453 1.8851,-1.292 4.2082,-1.9495 6.633,-2.0907 2.3768,-0.1384 4.8598,0.2205 7.1178,0.9628 3.0746,1.0108 5.7633,2.7454 7.2565,4.9243 1.2001,1.7512 2.1289,3.3314 2.9788,4.7776 1.151,1.9584 2.1505,3.6586 3.5612,5.2579 2.3123,-3.7817 4.9589,-6.759 7.3819,-8.79 1.5758,-1.3208 3.0772,-2.2567 4.3521,-2.7686 1.4837,-0.5956 2.7496,-0.6361 3.6177,-0.0802 0.0236,0.0152 0.0462,0.0312 0.0681,0.048 0.362,0.2508 0.637,0.5925 0.8135,1.0267 0.2411,0.5935 -0.1297,1.9844 -0.5981,3.7417 -0.3143,1.1792 -0.6788,2.5462 -0.941,3.8566 -0.3594,1.7959 -0.5813,3.3534 -0.2358,3.4225 1.3278,0.2657 3.2966,-2.8734 5.1111,-5.767 1.9872,-3.1689 3.825,-6.0993 5.8423,-5.3239 0.1834,0.0706 0.3464,0.1646 0.4892,0.2807 0.6769,0.5499 0.8894,1.5358 0.7502,2.7638 -0.1109,0.9773 -0.4449,2.1758 -0.9284,3.4336 -0.8577,2.2317 -2.2038,4.6871 -3.6059,6.4127 -0.3668,0.4514 -0.5186,1.223 -0.4124,1.8299 0.0293,0.1673 0.074,0.3009 0.1334,0.3799 0.0085,0.0113 0.0071,0.0171 0.0097,0.0175 0.1889,0.0305 0.528,-0.1247 1.0661,-0.5665 1.5506,-1.2731 3.5575,-3.7257 5.5486,-6.1589 2.747,-3.3572 5.4661,-6.6799 7.4111,-7.3011 1.2789,-0.4085 2.2335,0.0002 2.7323,1.5619 0.6881,2.1547 -0.361,6.2217 -2.7995,9.8665 -1.915,2.8622 -4.6954,5.5242 -8.1643,6.8579 -3.6247,1.3935 -7.6579,1.6766 -11.5895,1.1702 -4.3815,-0.5642 -8.6468,-2.107 -12.0791,-4.1812 -1.4072,-0.8504 -2.5599,-1.6869 -3.539,-2.5324 -0.8755,1.6567 -1.6758,3.4491 -2.3597,5.3672 -2.2826,6.4019 -3.7038,13.4522 -4.4277,19.8835 -0.8683,7.7135 -0.7368,14.4997 0.1121,18.1794z"/>
 </g>
</svg>
